<svg xmlns="http://www.w3.org/2000/svg" viewBox="0 0 1796 1796" fill="none">
  <g transform="translate(323.28 323.28) scale(0.64)">
    <g transform="matrix(0.994571,0,0,1.009774,-920.23553,-293.777636)">
    <path fill="#000" d="M984.415 1492.373c-1.679-5.41-2.583-11.152-2.583-17.1 0-32.278 26.606-58.484 59.378-58.484 25.377 0 47.057 15.714 55.548 37.793l.117-.045c6.294 16.26 13.133 32.256 20.495 47.967 77.622 165.66 213.323 299.587 381.32 376.387 15.928 7.282 32.147 14.05 48.634 20.283l.101.034c1.237.42 2.455.878 3.654 1.375 18.37 7.606 32.051 24.056 35.538 43.925.571 3.254.868 6.6.868 10.014v.044c-.024 32.258-26.621 58.44-59.377 58.44-7.139 0-13.984-1.244-20.326-3.522l-.014.039c-16.529-6.183-32.826-12.832-48.873-19.932-200.173-88.554-361.612-247.119-452.101-443.965-6.939-15.095-13.461-30.414-19.551-45.944-.314-.673-.616-1.352-.905-2.038-.723-1.718-1.366-3.476-1.923-5.271ZM1888.359 2064.875a58.551 58.551 0 0 1-1.427.017c-32.771 0-59.377-26.206-59.377-58.484 0-2.309.136-4.587.401-6.827.119-1.008.264-2.007.435-2.999 4.549-26.438 27.137-46.864 54.84-48.545l-.004-.064c17.694-1.249 35.226-3.079 52.576-5.472 379.392-52.321 671.749-373.598 671.749-761.601 0-109.215-23.164-213.143-64.912-307.275-6.966-15.705-14.449-31.138-22.428-46.278l-.388-.656a58.128 58.128 0 0 1-2.376-4.538 58.513 58.513 0 0 1-5.432-24.454c0-32.278 26.607-58.483 59.378-58.483 24.416 0 45.41 14.546 54.528 35.312l.209-.102c8.081 15.374 15.719 31.011 22.896 46.894 49.669 109.913 77.28 231.596 77.28 359.58 0 450.053-341.417 822.184-782.843 878.62-16.356 2.091-32.849 3.749-49.467 4.961-1.034.121-2.076.216-3.125.284-.833.054-1.671.09-2.513.11ZM995.452 1179.713a58.31 58.31 0 0 1-6.788.379c-23.841 0-44.42-13.869-53.864-33.857a58.503 58.503 0 0 1-5.514-24.626c0-.971.243-5.32.243-5.32 33.644-458.896 422.783-821.414 897.209-821.414 131.484 0 256.418 27.845 369.048 77.868 16.095 7.149 31.939 14.75 47.515 22.788l-.055.103c19.103 9.725 32.173 29.365 32.173 51.988 0 28.878-21.296 52.896-49.251 57.635-1.106.187-2.222.345-3.347.471a58.607 58.607 0 0 1-6.78.378 58.776 58.776 0 0 1-24.293-5.111 58.312 58.312 0 0 1-3.613-1.747 58.548 58.548 0 0 1-2.735-1.532c-14.681-7.498-29.635-14.551-44.841-21.14-96.058-41.623-202.221-64.734-313.821-64.734-411.517 0-749.106 314.236-778.706 712.169l-.04-.002c-.402 9.782-3.248 18.949-7.953 26.923-8.667 14.688-23.64 25.329-41.257 28.313-1.1.186-2.21.343-3.33.468Zm-6.353 58.364 831.282-116.966c18.502-2.604 37.168 3.525 50.383 16.541 13.216 13.017 19.438 31.402 16.795 49.625l-118.755 818.767c-4.407 30.382-31.908 52.241-62.99 50.065-31.081-2.175-55.168-27.645-55.168-58.336 0-355.056-292.667-643.317-653.15-643.317-31.16 0-57.019-23.724-59.228-54.337-2.209-30.614 19.984-57.701 50.831-62.042Zm593.774-584.834 831.282-116.967c18.502-2.603 37.168 3.525 50.384 16.542 13.215 13.016 19.437 31.401 16.794 49.624l-118.754 818.767c-4.407 30.382-31.909 52.241-62.99 50.066-31.082-2.176-55.168-27.646-55.168-58.337 0-355.056-292.667-643.316-653.151-643.316-31.16 0-57.019-23.725-59.228-54.338-2.209-30.613 19.984-57.701 50.831-62.041Z"/>
    </g>
  </g>
</svg>
