<?xml version="1.0" encoding="UTF-8" standalone="no"?>
<!DOCTYPE svg PUBLIC "-//W3C//DTD SVG 1.1//EN" "http://www.w3.org/Graphics/SVG/1.1/DTD/svg11.dtd">
<svg width="100%" height="100%" viewBox="0 0 1796 1796" version="1.1" xmlns="http://www.w3.org/2000/svg" xmlns:xlink="http://www.w3.org/1999/xlink" xml:space="preserve" xmlns:serif="http://www.serif.com/" style="fill-rule:evenodd;clip-rule:evenodd;stroke-linejoin:round;stroke-miterlimit:2;">
    <g transform="matrix(0.994571,0,0,1.009774,-920.23553,-293.777636)">
        <path d="M984.415,1492.373C982.736,1486.963 981.832,1481.221 981.832,1475.273C981.832,1442.995 1008.438,1416.789 1041.21,1416.789C1066.587,1416.789 1088.267,1432.503 1096.758,1454.582L1096.875,1454.537C1103.169,1470.797 1110.008,1486.793 1117.37,1502.504C1194.992,1668.164 1330.693,1802.091 1498.69,1878.891C1514.618,1886.173 1530.837,1892.941 1547.324,1899.174L1547.425,1899.208C1548.662,1899.628 1549.88,1900.086 1551.079,1900.583C1569.449,1908.189 1583.13,1924.639 1586.617,1944.508C1587.188,1947.762 1587.485,1951.108 1587.485,1954.522L1587.485,1954.566C1587.461,1986.824 1560.864,2013.006 1528.108,2013.006C1520.969,2013.006 1514.124,2011.762 1507.782,2009.484L1507.768,2009.523C1491.239,2003.34 1474.942,1996.691 1458.895,1989.591C1258.722,1901.037 1097.283,1742.472 1006.794,1545.626C999.855,1530.531 993.333,1515.212 987.243,1499.682C986.929,1499.009 986.627,1498.33 986.338,1497.644C985.615,1495.926 984.972,1494.168 984.415,1492.373ZM1888.359,2064.875C1887.885,2064.886 1887.409,2064.892 1886.932,2064.892C1854.161,2064.892 1827.555,2038.686 1827.555,2006.408C1827.555,2004.099 1827.691,2001.821 1827.956,1999.581C1828.075,1998.573 1828.22,1997.574 1828.391,1996.582C1832.94,1970.144 1855.528,1949.718 1883.231,1948.037L1883.227,1947.973C1900.921,1946.724 1918.453,1944.894 1935.803,1942.501C2315.195,1890.18 2607.552,1568.903 2607.552,1180.9C2607.552,1071.685 2584.388,967.757 2542.64,873.625C2535.674,857.92 2528.191,842.487 2520.212,827.347C2520.081,827.129 2519.952,826.911 2519.824,826.691C2518.968,825.217 2518.175,823.703 2517.448,822.153C2513.962,814.711 2512.016,806.427 2512.016,797.699C2512.016,765.421 2538.623,739.216 2571.394,739.216C2595.81,739.216 2616.804,753.762 2625.922,774.528L2626.131,774.426C2634.212,789.8 2641.85,805.437 2649.027,821.32C2698.696,931.233 2726.307,1052.916 2726.307,1180.9C2726.307,1630.953 2384.89,2003.084 1943.464,2059.52C1927.108,2061.611 1910.615,2063.269 1893.997,2064.481C1892.963,2064.602 1891.921,2064.697 1890.872,2064.765C1890.039,2064.819 1889.201,2064.855 1888.359,2064.875ZM929.366,1118.551L929.358,1118.715L929.355,1118.715L929.366,1118.551ZM995.452,1179.713C993.224,1179.964 990.959,1180.092 988.664,1180.092C964.823,1180.092 944.244,1166.223 934.8,1146.235C931.262,1138.749 929.286,1130.404 929.286,1121.609C929.286,1120.638 929.529,1116.289 929.529,1116.289C963.173,657.393 1352.312,294.875 1826.738,294.875C1958.222,294.875 2083.156,322.72 2195.786,372.743C2211.881,379.892 2227.725,387.493 2243.301,395.531L2243.246,395.634C2262.349,405.359 2275.419,424.999 2275.419,447.622C2275.419,476.5 2254.123,500.518 2226.168,505.257C2225.062,505.444 2223.946,505.602 2222.821,505.728C2220.596,505.978 2218.333,506.106 2216.041,506.106C2207.388,506.106 2199.165,504.279 2191.748,500.995C2190.521,500.452 2189.316,499.869 2188.135,499.248C2187.208,498.761 2186.296,498.25 2185.4,497.716C2170.719,490.218 2155.765,483.165 2140.559,476.576C2044.501,434.953 1938.338,411.842 1826.738,411.842C1415.221,411.842 1077.632,726.078 1048.032,1124.011L1047.992,1124.009C1047.59,1133.791 1044.744,1142.958 1040.039,1150.932C1031.372,1165.62 1016.399,1176.261 998.782,1179.245C997.682,1179.431 996.572,1179.588 995.452,1179.713ZM929.529,1116.289L929.366,1118.551C929.406,1117.793 929.46,1117.039 929.529,1116.289ZM989.099,1238.077L1820.381,1121.111C1838.883,1118.507 1857.549,1124.636 1870.764,1137.652C1883.98,1150.669 1890.202,1169.054 1887.559,1187.277L1768.804,2006.044C1764.397,2036.426 1736.896,2058.285 1705.814,2056.109C1674.733,2053.934 1650.646,2028.464 1650.646,1997.773C1650.646,1642.717 1357.979,1354.456 997.496,1354.456C966.336,1354.456 940.477,1330.732 938.268,1300.119C936.059,1269.505 958.252,1242.418 989.099,1238.077ZM1582.873,653.243L2414.155,536.276C2432.657,533.673 2451.323,539.801 2464.539,552.818C2477.754,565.834 2483.976,584.219 2481.333,602.442L2362.579,1421.209C2358.172,1451.591 2330.67,1473.45 2299.589,1471.275C2268.507,1469.099 2244.421,1443.629 2244.421,1412.938C2244.421,1057.882 1951.754,769.622 1591.27,769.622C1560.11,769.622 1534.251,745.897 1532.042,715.284C1529.833,684.671 1552.026,657.583 1582.873,653.243Z" style="fill:white;"/>
    </g>
</svg>
